<?xml version="1.0" encoding="UTF-8"?>
<!DOCTYPE svg PUBLIC "-//W3C//DTD SVG 1.1//EN" "http://www.w3.org/Graphics/SVG/1.1/DTD/svg11.dtd">
<!-- Creator: CorelDRAW X8 -->
<svg xmlns="http://www.w3.org/2000/svg" xml:space="preserve" width="210mm" height="297mm" version="1.1" style="shape-rendering:geometricPrecision; text-rendering:geometricPrecision; image-rendering:optimizeQuality; fill-rule:evenodd; clip-rule:evenodd"
viewBox="0 0 21000 29700"
 xmlns:xlink="http://www.w3.org/1999/xlink">
 <defs>
  <style type="text/css">
   <![CDATA[
    .str0 {stroke:#373435;stroke-width:20}
    .str1 {stroke:#FFF212;stroke-width:20}
    .str3 {stroke:#FFCC29;stroke-width:20}
    .str5 {stroke:#F58634;stroke-width:20}
    .str2 {stroke:#F58634;stroke-width:20}
    .str4 {stroke:#F5C92E;stroke-width:20}
    .fil1 {fill:#FFF212}
    .fil3 {fill:#FFCC29}
    .fil6 {fill:#F58634}
    .fil2 {fill:#F58634}
    .fil5 {fill:#EB6E37}
    .fil4 {fill:#DFB937}
    .fil0 {fill:#6B809B}
   ]]>
  </style>
 </defs>
 <g id="Capa_x0020_1">
  <metadata id="CorelCorpID_0Corel-Layer"/>
  <g id="_2464140179632">
   <path class="fil0 str0" d="M13595 16688c0,1041 129,982 -457,982l-7290 0c-370,0 -305,-51 -305,-660l0 -3886c0,-488 -39,-462 262,-712 970,-806 2136,-1477 3434,-1418 575,26 990,193 1494,445 -390,-343 -777,-568 -1299,-649 -1234,-190 -2567,564 -3538,1273 -93,68 -185,136 -276,206 -99,76 -194,128 -225,258 -26,109 -13,355 -13,478l0 4369c0,115 -33,351 77,415 73,42 359,25 457,25l6798 0c1107,0 1042,96 1042,-423l0 -1448c0,-211 12,-2325 -6,-2423 -25,-134 -141,25 -188,70 -1023,979 -2344,1933 -3801,2024 -44,3 -342,17 -108,38 1168,102 2306,-464 3236,-1118 617,-434 678,-629 686,-257 4,161 3,321 3,481 0,642 17,1287 17,1930z"/>
   <path class="fil1 str1" d="M12714 17814l-6798 0c-98,0 -384,17 -457,-25 -110,-64 -77,-300 -77,-415l0 -4369c0,-123 -13,-369 13,-478 31,-130 126,-182 225,-258 91,-70 183,-138 276,-206 971,-709 2304,-1463 3538,-1273 522,81 909,306 1299,649 -504,-252 -919,-419 -1494,-445 -1298,-59 -2464,612 -3434,1418 -301,250 -262,224 -262,712l0 3886c0,609 -65,660 305,660l7290 0c586,0 457,59 457,-982 0,-643 -17,-1288 -17,-1930 0,-160 1,-320 -3,-481 -8,-372 -69,-177 -686,257 -930,654 -2068,1220 -3236,1118 -234,-21 64,-35 108,-38 1457,-91 2778,-1045 3801,-2024 47,-45 163,-204 188,-70 18,98 6,2212 6,2423l0 1448c0,519 65,423 -1042,423zm-8 -449l-6257 0c-137,0 -464,36 -553,-73 -76,-94 -48,-448 -48,-579l0 -3132c0,-196 -12,-434 2,-625 16,-212 90,-262 242,-384 882,-713 1938,-1321 3105,-1273 194,8 356,9 378,247 17,175 19,399 -29,568 -41,139 -120,300 -245,382 -141,94 -307,69 -428,-44 -252,-236 -372,-614 -299,96 100,972 822,1268 1253,812 232,-246 308,-621 289,-949 -21,-376 -141,-599 -363,-890 -130,-170 -33,-157 121,-113 598,173 1115,519 1559,947 96,93 251,96 301,-40 34,-94 -116,-280 -170,-361 -1489,-2219 -3622,-1650 -5508,-375 -249,169 -486,344 -724,529 -152,118 -233,166 -252,375l-3 40 0 584 0 5012 8137 0 615 0 11 -1c253,-12 220,-218 220,-405l0 -4386c0,-103 13,-506 -17,-576 -41,-95 -178,93 -259,180 -1415,1518 -3388,2937 -5535,2168 -123,-44 -284,-152 -397,-56 -48,41 -72,107 -56,168 17,66 82,103 136,138 127,84 259,162 395,231 1323,676 2696,397 3941,-295 267,-148 520,-309 769,-484 123,-85 229,-191 236,50 5,203 8,415 9,618 0,415 8,830 8,1244 0,125 30,486 -37,575 -85,114 -408,77 -547,77zm-2899 -5031c88,435 -194,1176 -632,866 -69,-49 -222,-255 -222,-335 74,-3 158,39 302,-1 185,-51 308,-154 421,-306 24,-33 123,-220 131,-224z"/>
   <path class="fil2 str2" d="M9574 13905c1520,-265 2680,-1349 3632,-2489 51,-61 101,-126 150,-188 70,-90 6,-119 -63,-195 -432,-476 -847,-972 -1278,-1448 -648,-713 -1275,-1467 -1914,-2167 -108,-118 -211,-241 -318,-360 -53,-58 -107,-119 -159,-179 -65,-74 -90,-155 -161,-70 -413,489 -836,980 -1257,1461 -96,109 -1192,1372 -1257,1470 71,-18 207,-86 279,-119 475,-214 989,-436 1509,-506 723,-99 1269,2 1927,415 151,95 325,232 449,356 68,69 339,371 366,447 -385,-353 -687,-610 -1182,-808 -1330,-534 -2711,-11 -3857,705 -49,30 -270,200 -136,41 76,-90 152,-180 230,-269 616,-712 1233,-1436 1839,-2157 72,-85 1121,-1323 1150,-1341 47,-27 90,39 118,70 40,45 79,90 119,135 158,171 320,350 473,526 617,709 1261,1407 1888,2108l1416 1581c278,311 281,216 16,543 -577,713 -1294,1434 -2075,1921 -433,270 -901,486 -1401,598 -540,120 -1231,122 -1756,-64 522,38 699,80 1253,-17zm-2901 -485c2551,1870 4910,776 6829,-1420 175,-201 345,-407 508,-618 191,-246 144,-232 -201,-611 -1077,-1184 -2131,-2394 -3205,-3577 -242,-267 -856,-980 -1073,-1171 -351,396 -694,810 -1038,1213 -347,407 -693,815 -1041,1220 -696,812 -1390,1625 -2082,2440 -52,61 -215,231 -227,299 -17,94 108,216 205,189 50,-14 544,-409 635,-476 1971,-1445 4079,-2049 5718,159 239,322 230,450 520,173 106,-101 36,-214 -20,-318 -129,-238 -271,-484 -427,-707 -843,-1205 -2086,-1685 -3511,-1312 -74,19 -289,105 -159,-48l1046 -1215c88,-101 174,-205 262,-305 115,-130 182,-30 266,65 1061,1197 2115,2403 3177,3597 92,103 159,171 54,300 -84,103 -173,206 -262,306 -1469,1654 -3290,2655 -5453,1651 -243,-112 -502,-252 -724,-402 -77,-53 -220,-204 -306,-186 -98,21 -187,161 -109,254 58,69 520,428 618,500z"/>
   <path class="fil3 str3" d="M13553 11467c-577,713 -1294,1434 -2075,1921 -433,270 -901,486 -1401,598 -540,120 -1231,122 -1756,-64 522,38 699,80 1253,-17 1520,-265 2680,-1349 3632,-2489 51,-61 101,-126 150,-188 70,-90 6,-119 -63,-195 -432,-476 -847,-972 -1278,-1448 -648,-713 -1275,-1467 -1914,-2167 -108,-118 -211,-241 -318,-360 -53,-58 -107,-119 -159,-179 -65,-74 -90,-155 -161,-70 -413,489 -836,980 -1257,1461 -96,109 -1192,1372 -1257,1470 71,-18 207,-86 279,-119 475,-214 989,-436 1509,-506 723,-99 1269,2 1927,415 151,95 325,232 449,356 68,69 339,371 366,447 -385,-353 -687,-610 -1182,-808 -1330,-534 -2711,-11 -3857,705 -49,30 -270,200 -136,41 76,-90 152,-180 230,-269 616,-712 1233,-1436 1839,-2157 72,-85 1121,-1323 1150,-1341 47,-27 90,39 118,70 40,45 79,90 119,135 158,171 320,350 473,526 617,709 1261,1407 1888,2108l1416 1581c278,311 281,216 16,543zm-906 136c-1469,1654 -3290,2655 -5453,1651 -243,-112 -502,-252 -724,-402 -77,-53 -220,-204 -306,-186 -98,21 -187,161 -109,254 58,69 520,428 618,500 2551,1870 4910,776 6829,-1420 175,-201 345,-407 508,-618 191,-246 144,-232 -201,-611 -1077,-1184 -2131,-2394 -3205,-3577 -242,-267 -856,-980 -1073,-1171 -351,396 -694,810 -1038,1213 -347,407 -693,815 -1041,1220 -696,812 -1390,1625 -2082,2440 -52,61 -215,231 -227,299 -17,94 108,216 205,189 50,-14 544,-409 635,-476 1971,-1445 4079,-2049 5718,159 239,322 230,450 520,173 106,-101 36,-214 -20,-318 -129,-238 -271,-484 -427,-707 -843,-1205 -2086,-1685 -3511,-1312 -74,19 -289,105 -159,-48l1046 -1215c88,-101 174,-205 262,-305 115,-130 182,-30 266,65 1061,1197 2115,2403 3177,3597 92,103 159,171 54,300 -84,103 -173,206 -262,306z"/>
   <path class="fil4 str4" d="M11478 13388c781,-487 1498,-1208 2075,-1921 265,-327 262,-232 -16,-543l-1416 -1581c-627,-701 -1271,-1399 -1888,-2108 -153,-176 -315,-355 -473,-526 -40,-45 -79,-90 -119,-135 -28,-31 -71,-97 -118,-70 -29,18 -1078,1256 -1150,1341 -606,721 -1223,1445 -1839,2157 -78,89 -154,179 -230,269 -134,159 87,-11 136,-41 1146,-716 2527,-1239 3857,-705 495,198 797,455 1182,808 -27,-76 -298,-378 -366,-447 -124,-124 -298,-261 -449,-356 -658,-413 -1204,-514 -1927,-415 -520,70 -1034,292 -1509,506 -72,33 -208,101 -279,119 65,-98 1161,-1361 1257,-1470 421,-481 844,-972 1257,-1461 71,-85 96,-4 161,70 52,60 106,121 159,179 107,119 210,242 318,360 639,700 1266,1454 1914,2167 431,476 846,972 1278,1448 69,76 133,105 63,195 -49,62 -99,127 -150,188 -952,1140 -2112,2224 -3632,2489 -554,97 -731,55 -1253,17 525,186 1216,184 1756,64 500,-112 968,-328 1401,-598z"/>
   <path class="fil3 str3" d="M9170 13225c438,310 720,-431 632,-865 -8,3 -107,191 -131,223 -113,152 -236,255 -421,307 -144,39 -228,-3 -301,0 -1,80 152,286 221,335z"/>
   <path class="fil1 str1" d="M9434 10790c-1234,-190 -2567,564 -3538,1273 -93,68 -185,136 -276,206 -99,76 -194,128 -225,258 -26,109 -13,355 -13,478l0 4369c0,115 -33,351 77,415 73,42 359,25 457,25l6798 0c1107,0 1042,96 1042,-423l0 -1448c0,-211 12,-2325 -6,-2423 -25,-134 -141,25 -188,70 -1023,979 -2344,1933 -3801,2024 -44,3 -342,17 -108,38 1168,102 2306,-464 3236,-1118 617,-434 678,-629 686,-257 4,161 3,321 3,481 0,642 17,1287 17,1930 0,1041 129,982 -457,982l-7290 0c-370,0 -305,-51 -305,-660l0 -3886c0,-488 -39,-462 262,-712 970,-806 2136,-1477 3434,-1418 575,26 990,193 1494,445 -390,-343 -777,-568 -1299,-649z"/>
   <path class="fil5 str5" d="M5543 17010l0 -3886c0,-488 -39,-462 262,-712 970,-806 2136,-1477 3434,-1418 575,26 990,193 1494,445 -390,-343 -777,-568 -1299,-649 -1234,-190 -2567,564 -3538,1273 -93,68 -185,136 -276,206 -99,76 -194,128 -225,258 -26,109 -13,355 -13,478l0 4369c0,115 -33,351 77,415 73,42 359,25 457,25l6798 0c1107,0 1042,96 1042,-423l0 -1448c0,-211 12,-2325 -6,-2423 -25,-134 -141,25 -188,70 -1023,979 -2344,1933 -3801,2024 -44,3 -342,17 -108,38 1168,102 2306,-464 3236,-1118 617,-434 678,-629 686,-257 4,161 3,321 3,481 0,642 17,1287 17,1930 0,1041 129,982 -457,982l-7290 0c-370,0 -305,-51 -305,-660z"/>
   <path class="fil6 str5" d="M12706 17365l-6257 0c-137,0 -464,36 -553,-73 -76,-94 -48,-448 -48,-579l0 -3132c0,-196 -12,-434 2,-625 16,-212 90,-262 242,-384 882,-713 1938,-1321 3105,-1273 194,8 356,9 378,247 17,175 19,399 -29,568 -41,139 -120,300 -245,382 -141,94 -307,69 -428,-44 -252,-236 -372,-614 -299,96 100,972 822,1268 1253,812 232,-246 308,-621 289,-949 -21,-376 -141,-599 -363,-890 -130,-170 -33,-157 121,-113 598,173 1115,519 1559,947 96,93 251,96 301,-40 34,-94 -116,-280 -170,-361 -1489,-2219 -3622,-1650 -5508,-375 -249,169 -486,344 -724,529 -152,118 -233,166 -252,375l-3 40 0 584 0 5012 8137 0 615 0 11 -1c253,-12 220,-218 220,-405l0 -4386c0,-103 13,-506 -17,-576 -41,-95 -178,93 -259,180 -1415,1518 -3388,2937 -5535,2168 -123,-44 -284,-152 -397,-56 -48,41 -72,107 -56,168 17,66 82,103 136,138 127,84 259,162 395,231 1323,676 2696,397 3941,-295 267,-148 520,-309 769,-484 123,-85 229,-191 236,50 5,203 8,415 9,618 0,415 8,830 8,1244 0,125 30,486 -37,575 -85,114 -408,77 -547,77zm-7163 -4241l0 3886c0,609 -65,660 305,660l7290 0c586,0 457,59 457,-982 0,-643 -17,-1288 -17,-1930 0,-160 1,-320 -3,-481 -8,-372 -69,-177 -686,257 -930,654 -2068,1220 -3236,1118 -234,-21 64,-35 108,-38 1457,-91 2778,-1045 3801,-2024 47,-45 163,-204 188,-70 18,98 6,2212 6,2423l0 1448c0,519 65,423 -1042,423l-6798 0c-98,0 -384,17 -457,-25 -110,-64 -77,-300 -77,-415l0 -4369c0,-123 -13,-369 13,-478 31,-130 126,-182 225,-258 91,-70 183,-138 276,-206 971,-709 2304,-1463 3538,-1273 522,81 909,306 1299,649 -504,-252 -919,-419 -1494,-445 -1298,-59 -2464,612 -3434,1418 -301,250 -262,224 -262,712zm4264 -790c88,435 -194,1176 -632,866 -64,-45 -200,-226 -219,-316 -17,-33 -28,-63 -27,-84 73,-3 157,39 301,0 185,-52 308,-155 421,-307 24,-32 123,-220 131,-223 5,27 9,54 12,83 7,-11 11,-18 13,-19z"/>
  </g>
 </g>
</svg>
